<?xml version="1.0" standalone="no"?>
<!DOCTYPE svg PUBLIC "-//W3C//DTD SVG 20010904//EN"
 "http://www.w3.org/TR/2001/REC-SVG-20010904/DTD/svg10.dtd">
<svg version="1.0" xmlns="http://www.w3.org/2000/svg"
 width="171.000000pt" height="200.000000pt" viewBox="0 0 171.000000 200.000000"
 preserveAspectRatio="xMidYMid meet">

<g transform="translate(0.000000,200.000000) scale(0.100000,-0.100000)"
fill="#000000" stroke="none">
<path d="M776 1959 c-63 -9 -90 -23 -131 -66 -59 -63 -60 -66 -60 -339 l0
-251 -28 -40 c-15 -22 -47 -63 -71 -91 -62 -72 -81 -108 -101 -182 -10 -36
-44 -119 -77 -184 -43 -88 -58 -129 -57 -155 2 -20 -4 -49 -12 -66 -13 -27
-19 -30 -69 -33 -40 -2 -62 -9 -79 -25 -22 -21 -23 -26 -18 -118 6 -89 4 -100
-19 -142 -13 -25 -24 -53 -24 -62 0 -25 55 -51 148 -70 48 -9 137 -33 197 -53
146 -47 204 -49 265 -5 25 18 65 37 90 42 55 13 191 13 283 2 57 -8 74 -15
107 -44 42 -39 90 -53 146 -44 37 6 43 11 174 117 41 34 104 75 140 92 83 39
100 54 100 89 0 28 -17 46 -89 92 -39 25 -45 34 -60 102 -7 28 -18 55 -25 60
-11 8 -12 23 -5 65 26 154 -29 328 -156 494 -83 109 -137 198 -153 251 -6 22
-16 92 -22 155 -25 258 -71 350 -200 393 -64 21 -126 27 -194 16z m201 -303
c26 -23 28 -29 27 -96 -1 -77 -5 -86 -29 -76 -14 5 -14 8 1 30 21 33 10 81
-22 102 -22 15 -26 15 -49 0 -20 -13 -25 -25 -25 -59 -1 -39 -2 -41 -15 -23
-16 21 -20 93 -7 112 26 38 81 43 119 10z m-262 -11 c20 -19 25 -34 24 -72 -1
-45 -2 -46 -9 -16 -8 36 -27 63 -43 63 -40 0 -63 -82 -32 -114 9 -8 11 -17 6
-21 -6 -3 -18 6 -27 20 -24 36 -15 122 16 147 29 23 36 23 65 -7z m-5 -73 c0
-13 -3 -12 -19 4 -10 10 -16 23 -14 27 7 12 33 -13 33 -31z m260 0 c0 -13 -3
-12 -19 4 -10 10 -16 23 -14 27 7 12 33 -13 33 -31z m-64 -75 c45 -18 91 -39
104 -48 20 -13 21 -18 11 -38 -16 -29 -152 -118 -203 -131 -53 -15 -94 0 -143
50 -44 45 -43 48 6 23 56 -29 124 -23 203 16 66 34 83 47 73 58 -3 3 -25 -8
-49 -24 -63 -42 -93 -53 -149 -53 -57 0 -129 38 -129 68 0 38 108 111 165 111
17 0 66 -14 111 -32z m139 -233 c24 -53 47 -112 51 -132 4 -20 26 -68 50 -105
57 -92 76 -173 72 -307 l-3 -105 -35 0 c-51 0 -73 -46 -66 -134 5 -60 4 -66
-24 -101 -85 -108 -269 -167 -402 -130 -50 14 -114 90 -75 90 25 0 60 47 53
73 -7 29 -98 115 -189 179 -104 74 -125 124 -93 229 19 63 85 199 96 199 14 0
12 -27 -1 -36 -19 -11 -67 -126 -80 -192 -12 -56 -11 -65 6 -99 l19 -38 7 65
c9 80 29 140 84 250 23 47 46 101 50 120 4 19 25 70 46 112 22 43 39 84 39 93
0 21 7 19 41 -10 61 -51 148 -39 250 35 30 21 55 39 56 39 2 1 23 -42 48 -95z
m268 -295 c27 -51 28 -60 24 -144 -3 -49 -8 -100 -12 -112 -7 -23 -2 -26 66
-37 40 -7 89 -46 89 -71 0 -10 -9 -6 -27 15 -32 34 -105 57 -148 46 -15 -4
-41 -21 -57 -38 -15 -16 -28 -25 -28 -18 0 7 17 29 38 48 44 41 62 93 62 178
0 82 -24 148 -66 182 -43 34 -44 50 -1 24 18 -11 44 -42 60 -73z m-928 -370
c20 -18 48 -53 62 -78 15 -25 56 -86 91 -136 72 -100 98 -151 108 -212 5 -35
2 -44 -22 -72 -49 -54 -85 -55 -221 -9 -65 22 -161 49 -213 59 -90 19 -140 39
-140 58 0 5 12 34 26 65 22 49 24 63 18 113 -15 117 0 143 82 143 54 0 84 16
84 46 0 22 38 54 65 54 13 0 40 -14 60 -31z m816 -9 c10 -6 19 -18 19 -26 0
-28 28 -70 55 -82 55 -25 105 -10 164 52 19 20 40 36 47 36 7 0 18 -24 24 -52
16 -67 42 -103 91 -128 84 -43 73 -83 -37 -137 -41 -20 -111 -68 -156 -106
-100 -84 -125 -97 -183 -97 -37 0 -51 6 -80 33 l-34 32 10 75 c6 41 14 146 17
233 6 124 10 160 22 167 19 12 17 12 41 0z"/>
<path d="M750 1510 c-8 -5 -11 -12 -7 -16 4 -4 13 -2 19 4 6 6 10 14 7 16 -2
3 -11 1 -19 -4z"/>
<path d="M800 1505 c0 -8 7 -15 16 -15 14 0 14 3 4 15 -7 8 -14 15 -16 15 -2
0 -4 -7 -4 -15z"/>
</g>
</svg>
